<svg width="2208" height="2209" xmlns="http://www.w3.org/2000/svg" xmlns:xlink="http://www.w3.org/1999/xlink" xml:space="preserve" overflow="hidden"><defs><clipPath id="clip0"><rect x="1096" y="127" width="2208" height="2209"/></clipPath></defs><g clip-path="url(#clip0)" transform="translate(-1096 -127)"><rect x="1096" y="127" width="2208" height="2209" fill="#EDE9DE"/><path d="M2380 2007C2380 1936.86 2436.86 1880 2507 1880 2577.14 1880 2634 1936.86 2634 2007 2634 2077.14 2577.14 2134 2507 2134 2436.86 2134 2380 2077.14 2380 2007Z" fill="#FB4C86" fill-rule="evenodd" fill-opacity="0.301961"/><path d="M2598 1672C2598 1601.86 2654.86 1545 2725 1545 2795.14 1545 2852 1601.86 2852 1672 2852 1742.14 2795.14 1799 2725 1799 2654.86 1799 2598 1742.14 2598 1672Z" fill="#FB4C86" fill-rule="evenodd" fill-opacity="0.301961"/><path d="M1765 2007C1765 1936.86 1821.86 1880 1892 1880 1962.14 1880 2019 1936.86 2019 2007 2019 2077.14 1962.14 2134 1892 2134 1821.86 2134 1765 2077.14 1765 2007Z" fill="#FB4C86" fill-rule="evenodd" fill-opacity="0.301961"/><path d="M1555 1672C1555 1601.86 1611.86 1545 1682 1545 1752.14 1545 1809 1601.86 1809 1672 1809 1742.14 1752.14 1799 1682 1799 1611.86 1799 1555 1742.14 1555 1672Z" fill="#FB4C86" fill-rule="evenodd" fill-opacity="0.301961"/><path d="M2950 1336.5C2950 1266.08 3007.08 1209 3077.5 1209 3147.92 1209 3205 1266.08 3205 1336.5 3205 1406.92 3147.92 1464 3077.5 1464 3007.08 1464 2950 1406.92 2950 1336.5Z" fill="#FB4C86" fill-rule="evenodd" fill-opacity="0.301961"/><path d="M1202 1336.5C1202 1266.08 1258.86 1209 1329 1209 1399.14 1209 1456 1266.08 1456 1336.5 1456 1406.92 1399.14 1464 1329 1464 1258.86 1464 1202 1406.92 1202 1336.5Z" fill="#FB4C86" fill-rule="evenodd" fill-opacity="0.301961"/><path d="M2343 1336.5C2343 1266.08 2400.08 1209 2470.5 1209 2540.92 1209 2598 1266.08 2598 1336.5 2598 1406.92 2540.92 1464 2470.5 1464 2400.08 1464 2343 1406.92 2343 1336.5Z" fill="#FB4C86" fill-rule="evenodd" fill-opacity="0.301961"/><path d="M1809 1336.5C1809 1266.08 1865.86 1209 1936 1209 2006.14 1209 2063 1266.08 2063 1336.5 2063 1406.92 2006.14 1464 1936 1464 1865.86 1464 1809 1406.92 1809 1336.5Z" fill="#FB4C86" fill-rule="evenodd" fill-opacity="0.301961"/><path d="M1456 1001.5C1456 931.084 1513.08 874 1583.5 874 1653.92 874 1711 931.084 1711 1001.5 1711 1071.92 1653.92 1129 1583.5 1129 1513.08 1129 1456 1071.92 1456 1001.5Z" fill="#FB4C86" fill-rule="evenodd" fill-opacity="0.301961"/><path d="M2689 1001.5C2689 931.084 2745.86 874 2816 874 2886.14 874 2943 931.084 2943 1001.5 2943 1071.92 2886.14 1129 2816 1129 2745.86 1129 2689 1071.92 2689 1001.5Z" fill="#FB4C86" fill-rule="evenodd" fill-opacity="0.301961"/><path d="M2073 1001.5C2073 931.084 2129.86 874 2200 874 2270.14 874 2327 931.084 2327 1001.5 2327 1071.92 2270.14 1129 2200 1129 2129.86 1129 2073 1071.92 2073 1001.5Z" fill="#FB4C86" fill-rule="evenodd" fill-opacity="0.301961"/><path d="M1765 666C1765 595.86 1821.86 539 1892 539 1962.14 539 2019 595.86 2019 666 2019 736.14 1962.14 793 1892 793 1821.86 793 1765 736.14 1765 666Z" fill="#FB4C86" fill-rule="evenodd" fill-opacity="0.301961"/><path d="M2380 666C2380 595.86 2436.86 539 2507 539 2577.14 539 2634 595.86 2634 666 2634 736.14 2577.14 793 2507 793 2436.86 793 2380 736.14 2380 666Z" fill="#FB4C86" fill-rule="evenodd" fill-opacity="0.301961"/><rect x="1735" y="195" width="930" height="160" fill="#FB4C86" fill-opacity="0.301961"/><path d="M0 19.7148C-2.50996e-15 8.82663 8.82663-2.50996e-15 19.7148-5.01992e-15 30.603-1.00398e-14 39.4297 8.82663 39.4297 19.7148 39.4297 30.603 30.603 39.4297 19.7148 39.4297 8.82663 39.4297-1.25498e-14 30.603 0 19.7148Z" fill="#FB4C86" fill-rule="evenodd" fill-opacity="0.301961" transform="matrix(-0.809017 -0.587785 -0.587785 0.809017 2636.74 520.067)"/><path d="M0 19.7148C-2.50996e-15 8.82663 8.82663-2.50996e-15 19.7148-5.01992e-15 30.603-1.00398e-14 39.4297 8.82663 39.4297 19.7148 39.4297 30.603 30.603 39.4297 19.7148 39.4297 8.82663 39.4297-1.25498e-14 30.603 0 19.7148Z" fill="#FB4C86" fill-rule="evenodd" fill-opacity="0.301961" transform="matrix(-0.309017 -0.951057 -0.951057 0.309017 2696.61 625.45)"/><path d="M0 19.7148C-2.50996e-15 8.82663 8.82663-2.50996e-15 19.7148-5.01992e-15 30.603-1.00398e-14 39.4297 8.82663 39.4297 19.7148 39.4297 30.603 30.603 39.4297 19.7148 39.4297 8.82663 39.4297-1.25498e-14 30.603 0 19.7148Z" fill="#FB4C86" fill-rule="evenodd" fill-opacity="0.301961" transform="matrix(0.309017 -0.951057 -0.951057 -0.309017 2683.85 744.485)"/><path d="M0 19.7148C-2.50996e-15 8.82663 8.82663-2.50996e-15 19.7148-5.01992e-15 30.603-1.00398e-14 39.4297 8.82663 39.4297 19.7148 39.4297 30.603 30.603 39.4297 19.7148 39.4297 8.82663 39.4297-1.25498e-14 30.603 0 19.7148Z" fill="#FB4C86" fill-rule="evenodd" fill-opacity="0.301961" transform="matrix(0.809017 -0.587785 -0.587785 -0.809017 2605.42 834.669)"/><path d="M0 19.7148C-2.50996e-15 8.82663 8.82663-2.50996e-15 19.7148-5.01992e-15 30.603-1.00398e-14 39.4297 8.82663 39.4297 19.7148 39.4297 30.603 30.603 39.4297 19.7148 39.4297 8.82663 39.4297-1.25498e-14 30.603 0 19.7148Z" fill="#FB4C86" fill-rule="evenodd" fill-opacity="0.301961" transform="matrix(0.809017 -0.587785 -0.587785 -0.809017 2399.7 551.966)"/><path d="M0 19.7148C-2.50996e-15 8.82663 8.82663-2.50996e-15 19.7148-5.01992e-15 30.603-1.00398e-14 39.4297 8.82663 39.4297 19.7148 39.4297 30.603 30.603 39.4297 19.7148 39.4297 8.82663 39.4297-1.25498e-14 30.603 0 19.7148Z" fill="#FB4C86" fill-rule="evenodd" fill-opacity="0.301961" transform="matrix(0.309017 -0.951057 -0.951057 -0.309017 2353.2 636.488)"/><path d="M0 19.7148C-2.50996e-15 8.82663 8.82663-2.50996e-15 19.7148-5.01992e-15 30.603-1.00398e-14 39.4297 8.82663 39.4297 19.7148 39.4297 30.603 30.603 39.4297 19.7148 39.4297 8.82663 39.4297-1.25498e-14 30.603 0 19.7148Z" fill="#FB4C86" fill-rule="evenodd" fill-opacity="0.301961" transform="matrix(-0.309017 -0.951057 -0.951057 0.309017 2365.96 732.874)"/><path d="M0 19.7148C-2.50996e-15 8.82663 8.82663-2.50996e-15 19.7148-5.01992e-15 30.603-1.00398e-14 39.4297 8.82663 39.4297 19.7148 39.4297 30.603 30.603 39.4297 19.7148 39.4297 8.82663 39.4297-1.25498e-14 30.603 0 19.7148Z" fill="#FB4C86" fill-rule="evenodd" fill-opacity="0.301961" transform="matrix(-0.809017 -0.587785 -0.587785 0.809017 2431.85 802.099)"/><path d="M0 19.5001C-2.4826e-15 8.73049 8.73041-2.48262e-15 19.4999-4.96525e-15 30.2694-9.93049e-15 38.9998 8.73049 38.9998 19.5001 38.9998 30.2697 30.2694 39.0002 19.4999 39.0002 8.73041 39.0002-1.2413e-14 30.2697 0 19.5001Z" fill="#FB4C86" fill-rule="evenodd" fill-opacity="0.301961" transform="matrix(-1 0 0 1 2526 471)"/><path d="M0 19.5001C-2.4826e-15 8.73049 8.73041-2.48262e-15 19.4999-4.96525e-15 30.2694-9.93049e-15 38.9998 8.73049 38.9998 19.5001 38.9998 30.2697 30.2694 39.0002 19.4999 39.0002 8.73041 39.0002-1.2413e-14 30.2697 0 19.5001Z" fill="#FB4C86" fill-rule="evenodd" fill-opacity="0.301961" transform="matrix(-1 0 0 1 2526 821)"/><path d="M0 20.0001C-2.4826e-15 8.95436 8.73041-2.54628e-15 19.4999-5.09256e-15 30.2694-1.01851e-14 38.9998 8.95436 38.9998 20.0001 38.9998 31.0459 30.2694 40.0002 19.4999 40.0002 8.73041 40.0002-1.2413e-14 31.0459 0 20.0001Z" fill="#FB4C86" fill-rule="evenodd" fill-opacity="0.301961" transform="matrix(-1 0 0 1 1914 470)"/><path d="M0 20.0001C-2.4826e-15 8.95436 8.73041-2.54628e-15 19.4999-5.09256e-15 30.2694-1.01851e-14 38.9998 8.95436 38.9998 20.0001 38.9998 31.0459 30.2694 40.0002 19.4999 40.0002 8.73041 40.0002-1.2413e-14 31.0459 0 20.0001Z" fill="#FB4C86" fill-rule="evenodd" fill-opacity="0.301961" transform="matrix(-1 0 0 1 2089 644)"/><path d="M0 19.5001C-2.4826e-15 8.73049 8.73041-2.48262e-15 19.4999-4.96525e-15 30.2694-9.93049e-15 38.9998 8.73049 38.9998 19.5001 38.9998 30.2697 30.2694 39.0002 19.4999 39.0002 8.73041 39.0002-1.2413e-14 30.2697 0 19.5001Z" fill="#FB4C86" fill-rule="evenodd" fill-opacity="0.301961" transform="matrix(-1 0 0 1 1914 822)"/><path d="M0 19.5001C-2.48262e-15 8.73049 8.73049-2.48262e-15 19.5001-4.96525e-15 30.2697-9.93049e-15 39.0002 8.73049 39.0002 19.5001 39.0002 30.2697 30.2697 39.0002 19.5001 39.0002 8.73049 39.0002-1.24131e-14 30.2697 0 19.5001Z" fill="#FB4C86" fill-rule="evenodd" fill-opacity="0.301961" transform="matrix(-1 0 0 1 1739 645)"/><path d="M0 19.7148C-2.50996e-15 8.82663 8.82663-2.50996e-15 19.7148-5.01992e-15 30.603-1.00398e-14 39.4297 8.82663 39.4297 19.7148 39.4297 30.603 30.603 39.4297 19.7148 39.4297 8.82663 39.4297-1.25498e-14 30.603 0 19.7148Z" fill="#FB4C86" fill-rule="evenodd" fill-opacity="0.301961" transform="matrix(-0.809017 -0.587785 -0.587785 0.809017 3209.35 1194.26)"/><path d="M0 19.7148C-2.50996e-15 8.82663 8.82663-2.50996e-15 19.7148-5.01992e-15 30.603-1.00398e-14 39.4297 8.82663 39.4297 19.7148 39.4297 30.603 30.603 39.4297 19.7148 39.4297 8.82663 39.4297-1.25498e-14 30.603 0 19.7148Z" fill="#FB4C86" fill-rule="evenodd" fill-opacity="0.301961" transform="matrix(0.309017 -0.951057 -0.951057 -0.309017 3256.45 1418.68)"/><path d="M0 19.7148C-2.50996e-15 8.82663 8.82663-2.50996e-15 19.7148-5.01992e-15 30.603-1.00398e-14 39.4297 8.82663 39.4297 19.7148 39.4297 30.603 30.603 39.4297 19.7148 39.4297 8.82663 39.4297-1.25498e-14 30.603 0 19.7148Z" fill="#FB4C86" fill-rule="evenodd" fill-opacity="0.301961" transform="matrix(0.809017 -0.587785 -0.587785 -0.809017 2972.3 1226.16)"/><path d="M0 19.7148C-2.50996e-15 8.82663 8.82663-2.50996e-15 19.7148-5.01992e-15 30.603-1.00398e-14 39.4297 8.82663 39.4297 19.7148 39.4297 30.603 30.603 39.4297 19.7148 39.4297 8.82663 39.4297-1.25498e-14 30.603 0 19.7148Z" fill="#FB4C86" fill-rule="evenodd" fill-opacity="0.301961" transform="matrix(-0.309017 -0.951057 -0.951057 0.309017 2938.56 1407.07)"/><path d="M0 19.9999C-2.54626e-15 8.95428 8.95428-2.54626e-15 19.9999-5.09252e-15 31.0456-1.0185e-14 39.9999 8.95428 39.9999 19.9999 39.9999 31.0456 31.0456 39.9999 19.9999 39.9999 8.95428 39.9999-1.27313e-14 31.0456 0 19.9999Z" fill="#FB4C86" fill-rule="evenodd" fill-opacity="0.301961" transform="matrix(-1 0 0 1 3099 1495)"/><path d="M0 19.7148C-2.50996e-15 8.82663 8.82663-2.50996e-15 19.7148-5.01992e-15 30.603-1.00398e-14 39.4297 8.82663 39.4297 19.7148 39.4297 30.603 30.603 39.4297 19.7148 39.4297 8.82663 39.4297-1.25498e-14 30.603 0 19.7148Z" fill="#FB4C86" fill-rule="evenodd" fill-opacity="0.301961" transform="matrix(-0.939693 -0.34202 -0.34202 0.939693 2901.16 828.1)"/><path d="M0 19.7148C-2.50996e-15 8.82663 8.82663-2.50996e-15 19.7148-5.01992e-15 30.603-1.00398e-14 39.4297 8.82663 39.4297 19.7148 39.4297 30.603 30.603 39.4297 19.7148 39.4297 8.82663 39.4297-1.25498e-14 30.603 0 19.7148Z" fill="#FB4C86" fill-rule="evenodd" fill-opacity="0.301961" transform="matrix(-0.5 -0.866025 -0.866025 0.5 2994.24 924.028)"/><path d="M0 19.7148C-2.50996e-15 8.82663 8.82663-2.50996e-15 19.7148-5.01992e-15 30.603-1.00398e-14 39.4297 8.82663 39.4297 19.7148 39.4297 30.603 30.603 39.4297 19.7148 39.4297 8.82663 39.4297-1.25498e-14 30.603 0 19.7148Z" fill="#FB4C86" fill-rule="evenodd" fill-opacity="0.301961" transform="matrix(0.173648 -0.984808 -0.984808 -0.173648 3002.07 1056.45)"/><path d="M0 19.7148C-2.50996e-15 8.82663 8.82663-2.50996e-15 19.7148-5.01992e-15 30.603-1.00398e-14 39.4297 8.82663 39.4297 19.7148 39.4297 30.603 30.603 39.4297 19.7148 39.4297 8.82663 39.4297-1.25498e-14 30.603 0 19.7148Z" fill="#FB4C86" fill-rule="evenodd" fill-opacity="0.301961" transform="matrix(0.766044 -0.642788 -0.642788 -0.766044 2924.62 1165.11)"/><path d="M0 19.9999C-2.4826e-15 8.95428 8.73041-2.54626e-15 19.4999-5.09252e-15 30.2694-1.0185e-14 38.9998 8.95428 38.9998 19.9999 38.9998 31.0456 30.2694 39.9999 19.4999 39.9999 8.73041 39.9999-1.2413e-14 31.0456 0 19.9999Z" fill="#FB4C86" fill-rule="evenodd" fill-opacity="0.301961" transform="matrix(-1 0 0 1 2835 1158)"/><path d="M0 19.7148C-2.50996e-15 8.82663 8.82663-2.50996e-15 19.7148-5.01992e-15 30.603-1.00398e-14 39.4297 8.82663 39.4297 19.7148 39.4297 30.603 30.603 39.4297 19.7148 39.4297 8.82663 39.4297-1.25498e-14 30.603 0 19.7148Z" fill="#FB4C86" fill-rule="evenodd" fill-opacity="0.301961" transform="matrix(0.766044 0.642788 0.642788 -0.766044 2675.2 1139.83)"/><path d="M0 19.7148C-2.50996e-15 8.82663 8.82663-2.50996e-15 19.7148-5.01992e-15 30.603-1.00398e-14 39.4297 8.82663 39.4297 19.7148 39.4297 30.603 30.603 39.4297 19.7148 39.4297 8.82663 39.4297-1.25498e-14 30.603 0 19.7148Z" fill="#FB4C86" fill-rule="evenodd" fill-opacity="0.301961" transform="matrix(0.173648 0.984808 0.984808 -0.173648 2620.71 1018.19)"/><path d="M0 19.7148C-2.50996e-15 8.82663 8.82663-2.50996e-15 19.7148-5.01992e-15 30.603-1.00398e-14 39.4297 8.82663 39.4297 19.7148 39.4297 30.603 30.603 39.4297 19.7148 39.4297 8.82663 39.4297-1.25498e-14 30.603 0 19.7148Z" fill="#FB4C86" fill-rule="evenodd" fill-opacity="0.301961" transform="matrix(-0.5 0.866025 0.866025 0.5 2655.74 889.197)"/><path d="M0 19.7148C-2.50996e-15 8.82663 8.82663-2.50996e-15 19.7148-5.01992e-15 30.603-1.00398e-14 39.4297 8.82663 39.4297 19.7148 39.4297 30.603 30.603 39.4297 19.7148 39.4297 8.82663 39.4297-1.25498e-14 30.603 0 19.7148Z" fill="#FB4C86" fill-rule="evenodd" fill-opacity="0.301961" transform="matrix(-0.939693 0.34202 0.34202 0.939693 2767.02 813.928)"/><path d="M0 19.7148C-2.50996e-15 8.82663 8.82663-2.50996e-15 19.7148-5.01992e-15 30.603-1.00398e-14 39.4297 8.82663 39.4297 19.7148 39.4297 30.603 30.603 39.4297 19.7148 39.4297 8.82663 39.4297-1.25498e-14 30.603 0 19.7148Z" fill="#FB4C86" fill-rule="evenodd" fill-opacity="0.301961" transform="matrix(-0.707107 -0.707107 -0.707107 0.707107 1486.47 879.532)"/><path d="M0 19.7148C-2.50996e-15 8.82663 8.82663-2.50996e-15 19.7148-5.01992e-15 30.603-1.00398e-14 39.4297 8.82663 39.4297 19.7148 39.4297 30.603 30.603 39.4297 19.7148 39.4297 8.82663 39.4297-1.25498e-14 30.603 0 19.7148Z" fill="#FB4C86" fill-rule="evenodd" fill-opacity="0.301961" transform="matrix(-0.707107 -0.707107 -0.707107 0.707107 1487.75 1127.78)"/><path d="M0 19.7148C-2.50996e-15 8.82663 8.82663-2.50996e-15 19.7148-5.01992e-15 30.603-1.00398e-14 39.4297 8.82663 39.4297 19.7148 39.4297 30.603 30.603 39.4297 19.7148 39.4297 8.82663 39.4297-1.25498e-14 30.603 0 19.7148Z" fill="#FB4C86" fill-rule="evenodd" fill-opacity="0.301961" transform="matrix(-0.707107 -0.707107 -0.707107 0.707107 1735.61 879.501)"/><path d="M0 19.7148C-2.50996e-15 8.82663 8.82663-2.50996e-15 19.7148-5.01992e-15 30.603-1.00398e-14 39.4297 8.82663 39.4297 19.7148 39.4297 30.603 30.603 39.4297 19.7148 39.4297 8.82663 39.4297-1.25498e-14 30.603 0 19.7148Z" fill="#FB4C86" fill-rule="evenodd" fill-opacity="0.301961" transform="matrix(-0.707107 -0.707107 -0.707107 0.707107 1735.23 1128)"/><path d="M0 19.5001C-2.4826e-15 8.73049 8.73041-2.48262e-15 19.4999-4.96525e-15 30.2694-9.93049e-15 38.9998 8.73049 38.9998 19.5001 38.9998 30.2697 30.2694 39.0002 19.4999 39.0002 8.73041 39.0002-1.2413e-14 30.2697 0 19.5001Z" fill="#FB4C86" fill-rule="evenodd" fill-opacity="0.301961" transform="matrix(-1 0 0 1 1603 809)"/><path d="M0 19.4999C-2.54626e-15 8.73041 8.95428-2.4826e-15 19.9999-4.9652e-15 31.0456-9.9304e-15 39.9999 8.73041 39.9999 19.4999 39.9999 30.2694 31.0456 38.9998 19.9999 38.9998 8.95428 38.9998-1.27313e-14 30.2694 0 19.4999Z" fill="#FB4C86" fill-rule="evenodd" fill-opacity="0.301961" transform="matrix(-1 0 0 1 1779 984)"/><path d="M0 19.4999C-2.4826e-15 8.73041 8.73041-2.4826e-15 19.4999-4.9652e-15 30.2694-9.9304e-15 38.9998 8.73041 38.9998 19.4999 38.9998 30.2694 30.2694 38.9998 19.4999 38.9998 8.73041 38.9998-1.2413e-14 30.2694 0 19.4999Z" fill="#FB4C86" fill-rule="evenodd" fill-opacity="0.301961" transform="matrix(-1 0 0 1 1603 1158)"/><path d="M0 19.4999C-2.4826e-15 8.73041 8.73041-2.4826e-15 19.4999-4.9652e-15 30.2694-9.9304e-15 38.9998 8.73041 38.9998 19.4999 38.9998 30.2694 30.2694 38.9998 19.4999 38.9998 8.73041 38.9998-1.2413e-14 30.2694 0 19.4999Z" fill="#FB4C86" fill-rule="evenodd" fill-opacity="0.301961" transform="matrix(-1 0 0 1 1427 984)"/><path d="M0 19.7148C-2.50996e-15 8.82663 8.82663-2.50996e-15 19.7148-5.01992e-15 30.603-1.00398e-14 39.4297 8.82663 39.4297 19.7148 39.4297 30.603 30.603 39.4297 19.7148 39.4297 8.82663 39.4297-1.25498e-14 30.603 0 19.7148Z" fill="#FB4C86" fill-rule="evenodd" fill-opacity="0.301961" transform="matrix(-0.707107 -0.707107 -0.707107 0.707107 2373.18 1214.96)"/><path d="M0 19.7148C-2.50996e-15 8.82663 8.82663-2.50996e-15 19.7148-5.01992e-15 30.603-1.00398e-14 39.4297 8.82663 39.4297 19.7148 39.4297 30.603 30.603 39.4297 19.7148 39.4297 8.82663 39.4297-1.25498e-14 30.603 0 19.7148Z" fill="#FB4C86" fill-rule="evenodd" fill-opacity="0.301961" transform="matrix(-0.707107 -0.707107 -0.707107 0.707107 2374.45 1463.21)"/><path d="M0 19.7148C-2.50996e-15 8.82663 8.82663-2.50996e-15 19.7148-5.01992e-15 30.603-1.00398e-14 39.4297 8.82663 39.4297 19.7148 39.4297 30.603 30.603 39.4297 19.7148 39.4297 8.82663 39.4297-1.25498e-14 30.603 0 19.7148Z" fill="#FB4C86" fill-rule="evenodd" fill-opacity="0.301961" transform="matrix(-0.707107 -0.707107 -0.707107 0.707107 2622.32 1214.93)"/><path d="M0 19.7148C-2.50996e-15 8.82663 8.82663-2.50996e-15 19.7148-5.01992e-15 30.603-1.00398e-14 39.4297 8.82663 39.4297 19.7148 39.4297 30.603 30.603 39.4297 19.7148 39.4297 8.82663 39.4297-1.25498e-14 30.603 0 19.7148Z" fill="#FB4C86" fill-rule="evenodd" fill-opacity="0.301961" transform="matrix(-0.707107 -0.707107 -0.707107 0.707107 2621.94 1463.43)"/><path d="M0 19.9999C-2.48262e-15 8.95428 8.73049-2.54626e-15 19.5001-5.09252e-15 30.2697-1.0185e-14 39.0002 8.95428 39.0002 19.9999 39.0002 31.0456 30.2697 39.9999 19.5001 39.9999 8.73049 39.9999-1.24131e-14 31.0456 0 19.9999Z" fill="#FB4C86" fill-rule="evenodd" fill-opacity="0.301961" transform="matrix(-1 0 0 1 2490 1144)"/><path d="M0 19.9999C-2.48262e-15 8.95428 8.73049-2.54626e-15 19.5001-5.09252e-15 30.2697-1.0185e-14 39.0002 8.95428 39.0002 19.9999 39.0002 31.0456 30.2697 39.9999 19.5001 39.9999 8.73049 39.9999-1.24131e-14 31.0456 0 19.9999Z" fill="#FB4C86" fill-rule="evenodd" fill-opacity="0.301961" transform="matrix(-1 0 0 1 2665 1319)"/><path d="M0 20.0001C-2.48262e-15 8.95436 8.73049-2.54628e-15 19.5001-5.09256e-15 30.2697-1.01851e-14 39.0002 8.95436 39.0002 20.0001 39.0002 31.0459 30.2697 40.0002 19.5001 40.0002 8.73049 40.0002-1.24131e-14 31.0459 0 20.0001Z" fill="#FB4C86" fill-rule="evenodd" fill-opacity="0.301961" transform="matrix(-1 0 0 1 2490 1493)"/><path d="M0 19.9999C-2.48262e-15 8.95428 8.73049-2.54626e-15 19.5001-5.09252e-15 30.2697-1.0185e-14 39.0002 8.95428 39.0002 19.9999 39.0002 31.0456 30.2697 39.9999 19.5001 39.9999 8.73049 39.9999-1.24131e-14 31.0456 0 19.9999Z" fill="#FB4C86" fill-rule="evenodd" fill-opacity="0.301961" transform="matrix(-1 0 0 1 2314 1319)"/><path d="M0 19.7148C-2.50996e-15 8.82663 8.82663-2.50996e-15 19.7148-5.01992e-15 30.603-1.00398e-14 39.4297 8.82663 39.4297 19.7148 39.4297 30.603 30.603 39.4297 19.7148 39.4297 8.82663 39.4297-1.25498e-14 30.603 0 19.7148Z" fill="#FB4C86" fill-rule="evenodd" fill-opacity="0.301961" transform="matrix(-0.707107 -0.707107 -0.707107 0.707107 1585.17 1549.98)"/><path d="M0 19.7148C-2.50996e-15 8.82663 8.82663-2.50996e-15 19.7148-5.01992e-15 30.603-1.00398e-14 39.4297 8.82663 39.4297 19.7148 39.4297 30.603 30.603 39.4297 19.7148 39.4297 8.82663 39.4297-1.25498e-14 30.603 0 19.7148Z" fill="#FB4C86" fill-rule="evenodd" fill-opacity="0.301961" transform="matrix(-0.707107 -0.707107 -0.707107 0.707107 1586.45 1798.22)"/><path d="M0 19.7148C-2.50996e-15 8.82663 8.82663-2.50996e-15 19.7148-5.01992e-15 30.603-1.00398e-14 39.4297 8.82663 39.4297 19.7148 39.4297 30.603 30.603 39.4297 19.7148 39.4297 8.82663 39.4297-1.25498e-14 30.603 0 19.7148Z" fill="#FB4C86" fill-rule="evenodd" fill-opacity="0.301961" transform="matrix(-0.707107 -0.707107 -0.707107 0.707107 1834.32 1549.94)"/><path d="M0 19.7148C-2.50996e-15 8.82663 8.82663-2.50996e-15 19.7148-5.01992e-15 30.603-1.00398e-14 39.4297 8.82663 39.4297 19.7148 39.4297 30.603 30.603 39.4297 19.7148 39.4297 8.82663 39.4297-1.25498e-14 30.603 0 19.7148Z" fill="#FB4C86" fill-rule="evenodd" fill-opacity="0.301961" transform="matrix(-0.707107 -0.707107 -0.707107 0.707107 1833.93 1798.44)"/><path d="M0 19.9999C-2.4826e-15 8.95428 8.73041-2.54626e-15 19.4999-5.09252e-15 30.2694-1.0185e-14 38.9998 8.95428 38.9998 19.9999 38.9998 31.0456 30.2694 39.9999 19.4999 39.9999 8.73041 39.9999-1.2413e-14 31.0456 0 19.9999Z" fill="#FB4C86" fill-rule="evenodd" fill-opacity="0.301961" transform="matrix(-1 0 0 1 1702 1479)"/><path d="M0 19.9999C-2.4826e-15 8.95428 8.73041-2.54626e-15 19.4999-5.09252e-15 30.2694-1.0185e-14 38.9998 8.95428 38.9998 19.9999 38.9998 31.0456 30.2694 39.9999 19.4999 39.9999 8.73041 39.9999-1.2413e-14 31.0456 0 19.9999Z" fill="#FB4C86" fill-rule="evenodd" fill-opacity="0.301961" transform="matrix(-1 0 0 1 1877 1654)"/><path d="M0 19.9999C-2.4826e-15 8.95428 8.73041-2.54626e-15 19.4999-5.09252e-15 30.2694-1.0185e-14 38.9998 8.95428 38.9998 19.9999 38.9998 31.0456 30.2694 39.9999 19.4999 39.9999 8.73041 39.9999-1.2413e-14 31.0456 0 19.9999Z" fill="#FB4C86" fill-rule="evenodd" fill-opacity="0.301961" transform="matrix(-1 0 0 1 1702 1828)"/><path d="M0 19.9999C-2.4826e-15 8.95428 8.73041-2.54626e-15 19.4999-5.09252e-15 30.2694-1.0185e-14 38.9998 8.95428 38.9998 19.9999 38.9998 31.0456 30.2694 39.9999 19.4999 39.9999 8.73041 39.9999-1.2413e-14 31.0456 0 19.9999Z" fill="#FB4C86" fill-rule="evenodd" fill-opacity="0.301961" transform="matrix(-1 0 0 1 1526 1654)"/><path d="M0 19.7148C-2.50996e-15 8.82663 8.82663-2.50996e-15 19.7148-5.01992e-15 30.603-1.00398e-14 39.4297 8.82663 39.4297 19.7148 39.4297 30.603 30.603 39.4297 19.7148 39.4297 8.82663 39.4297-1.25498e-14 30.603 0 19.7148Z" fill="#FB4C86" fill-rule="evenodd" fill-opacity="0.301961" transform="matrix(-0.809017 -0.587785 -0.587785 0.809017 1461.1 1194.04)"/><path d="M0 19.7148C-2.50996e-15 8.82663 8.82663-2.50996e-15 19.7148-5.01992e-15 30.603-1.00398e-14 39.4297 8.82663 39.4297 19.7148 39.4297 30.603 30.603 39.4297 19.7148 39.4297 8.82663 39.4297-1.25498e-14 30.603 0 19.7148Z" fill="#FB4C86" fill-rule="evenodd" fill-opacity="0.301961" transform="matrix(0.309017 -0.951057 -0.951057 -0.309017 1508.21 1418.46)"/><path d="M0 19.7148C-2.50996e-15 8.82663 8.82663-2.50996e-15 19.7148-5.01992e-15 30.603-1.00398e-14 39.4297 8.82663 39.4297 19.7148 39.4297 30.603 30.603 39.4297 19.7148 39.4297 8.82663 39.4297-1.25498e-14 30.603 0 19.7148Z" fill="#FB4C86" fill-rule="evenodd" fill-opacity="0.301961" transform="matrix(0.809017 -0.587785 -0.587785 -0.809017 1224.06 1225.94)"/><path d="M0 19.7148C-2.50996e-15 8.82663 8.82663-2.50996e-15 19.7148-5.01992e-15 30.603-1.00398e-14 39.4297 8.82663 39.4297 19.7148 39.4297 30.603 30.603 39.4297 19.7148 39.4297 8.82663 39.4297-1.25498e-14 30.603 0 19.7148Z" fill="#FB4C86" fill-rule="evenodd" fill-opacity="0.301961" transform="matrix(-0.309017 -0.951057 -0.951057 0.309017 1190.32 1406.85)"/><path d="M0 19.5001C-2.4826e-15 8.73049 8.73041-2.48262e-15 19.4999-4.96525e-15 30.2694-9.93049e-15 38.9998 8.73049 38.9998 19.5001 38.9998 30.2697 30.2694 39.0002 19.4999 39.0002 8.73041 39.0002-1.2413e-14 30.2697 0 19.5001Z" fill="#FB4C86" fill-rule="evenodd" fill-opacity="0.301961" transform="matrix(-1 0 0 1 1350 1495)"/><path d="M0 19.7148C-2.50996e-15 8.82663 8.82663-2.50996e-15 19.7148-5.01992e-15 30.603-1.00398e-14 39.4297 8.82663 39.4297 19.7148 39.4297 30.603 30.603 39.4297 19.7148 39.4297 8.82663 39.4297-1.25498e-14 30.603 0 19.7148Z" fill="#FB4C86" fill-rule="evenodd" fill-opacity="0.301961" transform="matrix(-0.809017 -0.587785 -0.587785 0.809017 2068.19 1194.26)"/><path d="M0 19.7148C-2.50996e-15 8.82663 8.82663-2.50996e-15 19.7148-5.01992e-15 30.603-1.00398e-14 39.4297 8.82663 39.4297 19.7148 39.4297 30.603 30.603 39.4297 19.7148 39.4297 8.82663 39.4297-1.25498e-14 30.603 0 19.7148Z" fill="#FB4C86" fill-rule="evenodd" fill-opacity="0.301961" transform="matrix(0.309017 -0.951057 -0.951057 -0.309017 2115.3 1418.68)"/><path d="M0 19.7148C-2.50996e-15 8.82663 8.82663-2.50996e-15 19.7148-5.01992e-15 30.603-1.00398e-14 39.4297 8.82663 39.4297 19.7148 39.4297 30.603 30.603 39.4297 19.7148 39.4297 8.82663 39.4297-1.25498e-14 30.603 0 19.7148Z" fill="#FB4C86" fill-rule="evenodd" fill-opacity="0.301961" transform="matrix(0.809017 -0.587785 -0.587785 -0.809017 1831.14 1226.16)"/><path d="M0 19.7148C-2.50996e-15 8.82663 8.82663-2.50996e-15 19.7148-5.01992e-15 30.603-1.00398e-14 39.4297 8.82663 39.4297 19.7148 39.4297 30.603 30.603 39.4297 19.7148 39.4297 8.82663 39.4297-1.25498e-14 30.603 0 19.7148Z" fill="#FB4C86" fill-rule="evenodd" fill-opacity="0.301961" transform="matrix(-0.309017 -0.951057 -0.951057 0.309017 1797.41 1407.07)"/><path d="M0 19.9999C-2.4826e-15 8.95428 8.73041-2.54626e-15 19.4999-5.09252e-15 30.2694-1.0185e-14 38.9998 8.95428 38.9998 19.9999 38.9998 31.0456 30.2694 39.9999 19.4999 39.9999 8.73041 39.9999-1.2413e-14 31.0456 0 19.9999Z" fill="#FB4C86" fill-rule="evenodd" fill-opacity="0.301961" transform="matrix(-1 0 0 1 1957 1495)"/><path d="M0 19.5001C-2.54628e-15 8.73049 8.95436-2.48262e-15 20.0001-4.96525e-15 31.0459-9.93049e-15 40.0002 8.73049 40.0002 19.5001 40.0002 30.2697 31.0459 39.0002 20.0001 39.0002 8.95436 39.0002-1.27314e-14 30.2697 0 19.5001Z" fill="#FB4C86" fill-rule="evenodd" fill-opacity="0.301961" transform="matrix(-1 0 0 1 2224 809)"/><path d="M0 19.9999C-2.48262e-15 8.95428 8.73049-2.54626e-15 19.5001-5.09252e-15 30.2697-1.0185e-14 39.0002 8.95428 39.0002 19.9999 39.0002 31.0456 30.2697 39.9999 19.5001 39.9999 8.73049 39.9999-1.24131e-14 31.0456 0 19.9999Z" fill="#FB4C86" fill-rule="evenodd" fill-opacity="0.301961" transform="matrix(-1 0 0 1 2223 1159)"/><path d="M0 19.7148C-2.50996e-15 8.82663 8.82663-2.50996e-15 19.7148-5.01992e-15 30.603-1.00398e-14 39.4297 8.82663 39.4297 19.7148 39.4297 30.603 30.603 39.4297 19.7148 39.4297 8.82663 39.4297-1.25498e-14 30.603 0 19.7148Z" fill="#FB4C86" fill-rule="evenodd" fill-opacity="0.301961" transform="matrix(-0.5 -0.866025 -0.866025 0.5 2381.62 923.589)"/><path d="M0 19.7148C-2.50996e-15 8.82663 8.82663-2.50996e-15 19.7148-5.01992e-15 30.603-1.00398e-14 39.4297 8.82663 39.4297 19.7148 39.4297 30.603 30.603 39.4297 19.7148 39.4297 8.82663 39.4297-1.25498e-14 30.603 0 19.7148Z" fill="#FB4C86" fill-rule="evenodd" fill-opacity="0.301961" transform="matrix(-0.5 -0.866025 -0.866025 0.5 2078.7 1098.25)"/><path d="M0 19.7148C-2.50996e-15 8.82663 8.82663-2.50996e-15 19.7148-5.01992e-15 30.603-1.00398e-14 39.4297 8.82663 39.4297 19.7148 39.4297 30.603 30.603 39.4297 19.7148 39.4297 8.82663 39.4297-1.25498e-14 30.603 0 19.7148Z" fill="#FB4C86" fill-rule="evenodd" fill-opacity="0.301961" transform="matrix(0.5 -0.866025 -0.866025 -0.5 2058.41 943.213)"/><path d="M0 19.7148C-2.50996e-15 8.82663 8.82663-2.50996e-15 19.7148-5.01992e-15 30.603-1.00398e-14 39.4297 8.82663 39.4297 19.7148 39.4297 30.603 30.603 39.4297 19.7148 39.4297 8.82663 39.4297-1.25498e-14 30.603 0 19.7148Z" fill="#FB4C86" fill-rule="evenodd" fill-opacity="0.301961" transform="matrix(0.5 -0.866025 -0.866025 -0.5 2361.33 1118.05)"/><path d="M0 19.9999C-2.54626e-15 8.95428 8.95428-2.54626e-15 19.9999-5.09252e-15 31.0456-1.0185e-14 39.9999 8.95428 39.9999 19.9999 39.9999 31.0456 31.0456 39.9999 19.9999 39.9999 8.95428 39.9999-1.27313e-14 31.0456 0 19.9999Z" fill="#FB4C86" fill-rule="evenodd" fill-opacity="0.301961" transform="matrix(-1 0 0 1 2749 1479)"/><path d="M0 19.4999C-2.4826e-15 8.73041 8.73041-2.4826e-15 19.4999-4.9652e-15 30.2694-9.9304e-15 38.9998 8.73041 38.9998 19.4999 38.9998 30.2694 30.2694 38.9998 19.4999 38.9998 8.73041 38.9998-1.2413e-14 30.2694 0 19.4999Z" fill="#FB4C86" fill-rule="evenodd" fill-opacity="0.301961" transform="matrix(-1 0 0 1 2748 1830)"/><path d="M0 19.7148C-2.50996e-15 8.82663 8.82663-2.50996e-15 19.7148-5.01992e-15 30.603-1.00398e-14 39.4297 8.82663 39.4297 19.7148 39.4297 30.603 30.603 39.4297 19.7148 39.4297 8.82663 39.4297-1.25498e-14 30.603 0 19.7148Z" fill="#FB4C86" fill-rule="evenodd" fill-opacity="0.301961" transform="matrix(-0.5 -0.866025 -0.866025 0.5 2906.49 1593.91)"/><path d="M0 19.7148C-2.50996e-15 8.82663 8.82663-2.50996e-15 19.7148-5.01992e-15 30.603-1.00398e-14 39.4297 8.82663 39.4297 19.7148 39.4297 30.603 30.603 39.4297 19.7148 39.4297 8.82663 39.4297-1.25498e-14 30.603 0 19.7148Z" fill="#FB4C86" fill-rule="evenodd" fill-opacity="0.301961" transform="matrix(-0.5 -0.866025 -0.866025 0.5 2603.57 1768.57)"/><path d="M0 19.7148C-2.50996e-15 8.82663 8.82663-2.50996e-15 19.7148-5.01992e-15 30.603-1.00398e-14 39.4297 8.82663 39.4297 19.7148 39.4297 30.603 30.603 39.4297 19.7148 39.4297 8.82663 39.4297-1.25498e-14 30.603 0 19.7148Z" fill="#FB4C86" fill-rule="evenodd" fill-opacity="0.301961" transform="matrix(0.5 -0.866025 -0.866025 -0.5 2583.28 1613.53)"/><path d="M0 19.7148C-2.50996e-15 8.82663 8.82663-2.50996e-15 19.7148-5.01992e-15 30.603-1.00398e-14 39.4297 8.82663 39.4297 19.7148 39.4297 30.603 30.603 39.4297 19.7148 39.4297 8.82663 39.4297-1.25498e-14 30.603 0 19.7148Z" fill="#FB4C86" fill-rule="evenodd" fill-opacity="0.301961" transform="matrix(0.5 -0.866025 -0.866025 -0.5 2886.2 1788.37)"/><path d="M0 19.9999C-2.54626e-15 8.95428 8.95428-2.54626e-15 19.9999-5.09252e-15 31.0456-1.0185e-14 39.9999 8.95428 39.9999 19.9999 39.9999 31.0456 31.0456 39.9999 19.9999 39.9999 8.95428 39.9999-1.27313e-14 31.0456 0 19.9999Z" fill="#FB4C86" fill-rule="evenodd" fill-opacity="0.301961" transform="matrix(-1 0 0 1 2531 1814)"/><path d="M0 19.5001C-2.4826e-15 8.73049 8.73041-2.48262e-15 19.4999-4.96525e-15 30.2694-9.93049e-15 38.9998 8.73049 38.9998 19.5001 38.9998 30.2697 30.2694 39.0002 19.4999 39.0002 8.73041 39.0002-1.2413e-14 30.2697 0 19.5001Z" fill="#FB4C86" fill-rule="evenodd" fill-opacity="0.301961" transform="matrix(-1 0 0 1 2530 2165)"/><path d="M0 19.7148C-2.50996e-15 8.82663 8.82663-2.50996e-15 19.7148-5.01992e-15 30.603-1.00398e-14 39.4297 8.82663 39.4297 19.7148 39.4297 30.603 30.603 39.4297 19.7148 39.4297 8.82663 39.4297-1.25498e-14 30.603 0 19.7148Z" fill="#FB4C86" fill-rule="evenodd" fill-opacity="0.301961" transform="matrix(-0.5 -0.866025 -0.866025 0.5 2688.64 1929.24)"/><path d="M0 19.7148C-2.50996e-15 8.82663 8.82663-2.50996e-15 19.7148-5.01992e-15 30.603-1.00398e-14 39.4297 8.82663 39.4297 19.7148 39.4297 30.603 30.603 39.4297 19.7148 39.4297 8.82663 39.4297-1.25498e-14 30.603 0 19.7148Z" fill="#FB4C86" fill-rule="evenodd" fill-opacity="0.301961" transform="matrix(-0.5 -0.866025 -0.866025 0.5 2385.72 2103.9)"/><path d="M0 19.7148C-2.50996e-15 8.82663 8.82663-2.50996e-15 19.7148-5.01992e-15 30.603-1.00398e-14 39.4297 8.82663 39.4297 19.7148 39.4297 30.603 30.603 39.4297 19.7148 39.4297 8.82663 39.4297-1.25498e-14 30.603 0 19.7148Z" fill="#FB4C86" fill-rule="evenodd" fill-opacity="0.301961" transform="matrix(0.5 -0.866025 -0.866025 -0.5 2365.43 1948.86)"/><path d="M0 19.7148C-2.50996e-15 8.82663 8.82663-2.50996e-15 19.7148-5.01992e-15 30.603-1.00398e-14 39.4297 8.82663 39.4297 19.7148 39.4297 30.603 30.603 39.4297 19.7148 39.4297 8.82663 39.4297-1.25498e-14 30.603 0 19.7148Z" fill="#FB4C86" fill-rule="evenodd" fill-opacity="0.301961" transform="matrix(0.5 -0.866025 -0.866025 -0.5 2668.35 2123.7)"/><path d="M0 19.9999C-2.48262e-15 8.95428 8.73049-2.54626e-15 19.5001-5.09252e-15 30.2697-1.0185e-14 39.0002 8.95428 39.0002 19.9999 39.0002 31.0456 30.2697 39.9999 19.5001 39.9999 8.73049 39.9999-1.24131e-14 31.0456 0 19.9999Z" fill="#FB4C86" fill-rule="evenodd" fill-opacity="0.301961" transform="matrix(-1 0 0 1 1915 1814)"/><path d="M0 19.5001C-2.48262e-15 8.73049 8.73049-2.48262e-15 19.5001-4.96525e-15 30.2697-9.93049e-15 39.0002 8.73049 39.0002 19.5001 39.0002 30.2697 30.2697 39.0002 19.5001 39.0002 8.73049 39.0002-1.24131e-14 30.2697 0 19.5001Z" fill="#FB4C86" fill-rule="evenodd" fill-opacity="0.301961" transform="matrix(-1 0 0 1 1915 2165)"/><path d="M0 19.7148C-2.50996e-15 8.82663 8.82663-2.50996e-15 19.7148-5.01992e-15 30.603-1.00398e-14 39.4297 8.82663 39.4297 19.7148 39.4297 30.603 30.603 39.4297 19.7148 39.4297 8.82663 39.4297-1.25498e-14 30.603 0 19.7148Z" fill="#FB4C86" fill-rule="evenodd" fill-opacity="0.301961" transform="matrix(-0.5 -0.866025 -0.866025 0.5 2073.11 1928.98)"/><path d="M0 19.7148C-2.50996e-15 8.82663 8.82663-2.50996e-15 19.7148-5.01992e-15 30.603-1.00398e-14 39.4297 8.82663 39.4297 19.7148 39.4297 30.603 30.603 39.4297 19.7148 39.4297 8.82663 39.4297-1.25498e-14 30.603 0 19.7148Z" fill="#FB4C86" fill-rule="evenodd" fill-opacity="0.301961" transform="matrix(-0.5 -0.866025 -0.866025 0.5 1770.19 2103.64)"/><path d="M0 19.7148C-2.50996e-15 8.82663 8.82663-2.50996e-15 19.7148-5.01992e-15 30.603-1.00398e-14 39.4297 8.82663 39.4297 19.7148 39.4297 30.603 30.603 39.4297 19.7148 39.4297 8.82663 39.4297-1.25498e-14 30.603 0 19.7148Z" fill="#FB4C86" fill-rule="evenodd" fill-opacity="0.301961" transform="matrix(0.5 -0.866025 -0.866025 -0.5 1749.9 1948.6)"/><path d="M0 19.7148C-2.50996e-15 8.82663 8.82663-2.50996e-15 19.7148-5.01992e-15 30.603-1.00398e-14 39.4297 8.82663 39.4297 19.7148 39.4297 30.603 30.603 39.4297 19.7148 39.4297 8.82663 39.4297-1.25498e-14 30.603 0 19.7148Z" fill="#FB4C86" fill-rule="evenodd" fill-opacity="0.301961" transform="matrix(0.5 -0.866025 -0.866025 -0.5 2052.82 2123.45)"/><text fill="#FB4C86" font-family="Papyrus,Papyrus_MSFontService,sans-serif" font-weight="700" font-size="165" transform="matrix(1 0 0 1 1804.3 712)">A</text><text fill="#FB4C86" font-family="Papyrus,Papyrus_MSFontService,sans-serif" font-weight="700" font-size="165" transform="matrix(1 0 0 1 2429.36 712)">B</text><text fill="#FB4C86" font-family="Papyrus,Papyrus_MSFontService,sans-serif" font-weight="700" font-size="165" transform="matrix(1 0 0 1 1483.3 1048)">C</text><text fill="#FB4C86" font-family="Papyrus,Papyrus_MSFontService,sans-serif" font-weight="700" font-size="165" transform="matrix(1 0 0 1 2118.36 1048)">D</text><text fill="#FB4C86" font-family="Papyrus,Papyrus_MSFontService,sans-serif" font-weight="700" font-size="165" transform="matrix(1 0 0 1 2726.92 1048)">E</text><text fill="#FB4C86" font-family="Papyrus,Papyrus_MSFontService,sans-serif" font-weight="700" font-size="165" transform="matrix(1 0 0 1 1265.12 1386)">F</text><text fill="#FB4C86" font-family="Papyrus,Papyrus_MSFontService,sans-serif" font-weight="700" font-size="165" transform="matrix(1 0 0 1 1847.09 1391)">G</text><text fill="#FB4C86" font-family="Papyrus,Papyrus_MSFontService,sans-serif" font-weight="700" font-size="165" transform="matrix(1 0 0 1 2385.02 1386)">H</text><text fill="#FB4C86" font-family="Papyrus,Papyrus_MSFontService,sans-serif" font-weight="700" font-size="165" transform="matrix(1 0 0 1 3053.97 1391)">I</text><text fill="#FB4C86" font-family="Papyrus,Papyrus_MSFontService,sans-serif" font-weight="700" font-size="165" transform="matrix(1 0 0 1 1626.86 1724)">J</text><text fill="#FB4C86" font-family="Papyrus,Papyrus_MSFontService,sans-serif" font-weight="700" font-size="165" transform="matrix(1 0 0 1 2657.63 1724)">K</text><text fill="#FB4C86" font-family="Papyrus,Papyrus_MSFontService,sans-serif" font-weight="700" font-size="165" transform="matrix(1 0 0 1 1822.92 2060)">L</text><text fill="#FB4C86" font-family="Papyrus,Papyrus_MSFontService,sans-serif" font-weight="700" font-size="165" transform="matrix(1 0 0 1 2419.29 2060)">M</text><path d="M1726.5 186.872 1726.5 361.128 2672.5 361.128 2672.5 186.872ZM1708 169 2691 169 2691 379 1708 379Z" fill="#FB4C86" fill-rule="evenodd" fill-opacity="0.301961"/><text fill="#FB4C86" font-family="Papyrus,Papyrus_MSFontService,sans-serif" font-weight="700" font-size="110" transform="matrix(1 0 0 1 2300.24 312)">Bride</text><text fill="#FB4C86" font-family="Papyrus,Papyrus_MSFontService,sans-serif" font-weight="700" font-size="110" transform="matrix(1 0 0 1 1814.36 312)">Groom</text></g></svg>